# xmcd
#
# Track frame offsets:
#  150
#  9771
#  22840
#  32628
#  44052
#  54459
#  63919
#  73393
#  83717
#  94104
#  106636
#  116863
#
# Disc length: 1704 seconds
#
# Revision: 0
# Processed by: cddbd v1.5.1PL2 Copyright (c) Steve Scherf et al.
# Submitted via: Collectorz.com Music Collector 6.9
#
DISCID=9306a60c
DTITLE=Faron Young - Faron Young Sweethearts Or Strangers
DYEAR=1900
DGENRE=
TTITLE0=01 - mSweethearts Or Strangers (Bad Skips)
TTITLE1=02 - Your Cheatin' Heart
TTITLE2=03 - Shame On You
TTITLE3=04 - I Can't Tell My Heart
TTITLE4=05 - Better Things Than These
TTITLE5=06 - You Call Everybody Darlin'
TTITLE6=07 - I'm A Poor Boy
TTITLE7=08 - I Can't Help It
TTITLE8=09 - Worried Mind
TTITLE9=10 - I'll Be Yours
TTITLE10=11 - That's What It's Like To Be Lonesome
TTITLE11=12 - You Are My Sunshine
EXTD=
EXTT0=
EXTT1=
EXTT2=
EXTT3=
EXTT4=
EXTT5=
EXTT6=
EXTT7=
EXTT8=
EXTT9=
EXTT10=
EXTT11=
PLAYORDER=
